<?xml version="1.0" encoding="utf-8"?>
<!-- Generator: Adobe Illustrator 21.0.2, SVG Export Plug-In . SVG Version: 6.00 Build 0)  -->
<svg version="1.1" id="Screen_2" xmlns="http://www.w3.org/2000/svg" xmlns:xlink="http://www.w3.org/1999/xlink" x="0px" y="0px"
	 viewBox="0 0 604 570" style="enable-background:new 0 0 604 570;" xml:space="preserve">
<style type="text/css">
	.st0{fill:none;stroke:#D5DCEC;stroke-width:9;stroke-linecap:round;stroke-dasharray:1.000000e-03,36.45;}
	.st1{fill:none;stroke:#D5DCEC;stroke-width:4;stroke-linecap:round;stroke-dasharray:1.000000e-03,28;}
	.st2{fill:#D5DCEC;}
	.st3{fill:#122B5B;}
	.st4{fill:none;enable-background:new    ;}
  
</style>
<circle id="Эллипс_2" class="st0" cx="311" cy="285" r="215"/>
<circle id="Эллипс_2_копия" class="st1" cx="311" cy="285" r="285"/>
<g id="dot">
	<circle id="Эллипс_3" class="st2" cx="134.5" cy="64.5" r="12.5"/>
	<circle id="Эллипс_3_копия" class="st3" cx="134.5" cy="64.5" r="6.5"/>
</g>
<g id="dot-2">
	<circle id="Эллипс_3_копия_4" class="st2" cx="31" cy="230" r="12.5"/>
	<circle id="Эллипс_3_копия_7" class="st3" cx="31" cy="230" r="6.5"/>
</g>
<g id="dot-3">
	<circle id="Эллипс_3_копия_5" class="st2" cx="514.5" cy="85.5" r="12.5"/>
	<circle id="Эллипс_3_копия_5-2" class="st3" cx="514.5" cy="85.5" r="6.5"/>
</g>
<g id="dot-4">
	<circle id="Эллипс_3_копия_3" class="st2" cx="48.5" cy="392.5" r="12.5"/>
	<circle id="Эллипс_3_копия_3-2" class="st3" cx="48.5" cy="392.5" r="6.5"/>
</g>
<g id="dot-5">
	<circle id="Эллипс_3_копия_6" class="st2" cx="568.5" cy="397.5" r="12.5"/>
	<circle id="Эллипс_3_копия_6-2" class="st3" cx="568.5" cy="397.5" r="6.5"/>
</g>
<g id="icon">
	<image class="icon" style="overflow:visible;" width="70" height="70" xlink:href="2C78BA6C.png"  transform="matrix(1 0 0 1 -0.3333 195)">
	</image>
	<path class="st4" d="z"/>
</g>
<g id="icon_копия">
	<image style="overflow:visible;" width="70" height="70" xlink:href="2C78BA6B.png"  transform="matrix(1 0 0 1 100 29)">
	</image>
	<path class="st4" d="z"/>
</g>
<g id="icon_копия_2">
	<image style="overflow:visible;" width="70" height="70" xlink:href="2C78BA74.png"  transform="matrix(1 0 0 1 480 52)">
	</image>
	<path class="st4" d="z"/>
</g>
<g id="icon_копия_3">
	<image style="overflow:visible;" width="70" height="70" xlink:href="2C78BA76.png"  transform="matrix(1 0 0 1 534 363)">
	</image>
	<path class="st4" d="z"/>
</g>
<g id="icon_копия_4">
	<image style="overflow:visible;" width="70" height="70" xlink:href="2C78BA7A.png"  transform="matrix(1 0 0 1 13 357)">
	</image>
	<path class="st4" d="z"/>
</g>
</svg>
